<svg xmlns="http://www.w3.org/2000/svg" viewBox="0 0 512 512">
  <defs>
    <linearGradient id="bg" x1="0" y1="0" x2="1" y2="1">
      <stop offset="0" stop-color="#232647"/>
      <stop offset="1" stop-color="#0e0f14"/>
    </linearGradient>
    <linearGradient id="shirt" x1="0" y1="0" x2="1" y2="1">
      <stop offset="0" stop-color="#8b7cf6"/>
      <stop offset="1" stop-color="#4fd1c5"/>
    </linearGradient>
  </defs>
  <rect width="512" height="512" rx="112" fill="url(#bg)"/>
  <path d="M256 118c-14 0-27 5-36 13l-58 26c-10 5-16 15-14 26l10 52c2 10 12 16 22 14l24-6v141c0 13 11 24 24 24h56c13 0 24-11 24-24V243l24 6c10 2 20-4 22-14l10-52c2-11-4-21-14-26l-58-26c-9-8-22-13-36-13z" fill="url(#shirt)"/>
  <circle cx="256" cy="150" r="22" fill="#0e0f14" opacity="0.35"/>
</svg>
